# xmcd CD database file
# Copyright (C) 1993-1998 Ti Kan
# 
# Track frame offsets:
#     150
#     16918
#     37698
#     52086
#     70322
#     91797
#     106948
#     120476
#     133664
#     152339
#     165990
#     178755
#     194828
#     212004
#     232332
#     248535
# 
# Disc length: 3442 seconds
# 
# Revision: 1
# Processed by: cddbd v1.4b41PL1 Copyright (c) Steve Scherf et al.
# Submitted via: DiscPlay 4.0.4
# 
DISCID=cf0d7010
DTITLE=Pino Daniele - Tra Musica e Magia
DYEAR=1900
DGENRE=
TTITLE0=Je sto vicino a te
TTITLE1=Quanno chiove
TTITLE2=Alleria
TTITLE3=Voglio di piu'
TTITLE4=Ue mani
TTITLE5='Na tazzulella 'e cafe'
TTITLE6=Je so' pazzo
TTITLE7=Che calore
TTITLE8=I Say I'sto cca'
TTITLE9=A me me piace o' blues
TTITLE10=Musica musica
TTITLE11=Nun me scoccia'
TTITLE12=Napule e'
TTITLE13=E so' cuntento 'e sta
TTITLE14=Basta na jurnata e sole
TTITLE15=Terra mia
EXTD=
EXTT0=
EXTT1=
EXTT2=
EXTT3=
EXTT4=
EXTT5=
EXTT6=
EXTT7=
EXTT8=
EXTT9=
EXTT10=
EXTT11=
EXTT12=
EXTT13=
EXTT14=
EXTT15=
PLAYORDER=
